<svg width="120" height="42" viewBox="0 0 120 42" fill="none" xmlns="http://www.w3.org/2000/svg">
    <path d="M60.3334 30.2092C60.3334 35.8529 55.7584 40.4279 50.1149 40.4279C44.4713 40.4279 39.8963 35.8529 39.8963 30.2092C39.8963 24.5656 44.4713 19.9906 50.1149 19.9906C55.7584 19.9906 60.3334 24.5656 60.3334 30.2092Z"
          stroke="#FCC01C" stroke-width="3.14419"/>
    <path d="M30.7266 28.6382L38.6743 29.2496V32.3064L30.7266 32.8305V28.6382Z" fill="#FCC01C"/>
    <path d="M44.7897 6.01758C43.8872 7.09476 42.6237 9.84303 44.7897 12.2187C45.0517 12.6554 46.9732 14.5768 44.353 17.459"
          stroke="#FCC01C" stroke-width="2.09613" stroke-linecap="round" stroke-linejoin="round"/>
    <path d="M50.3483 2C49.4458 3.07718 48.1823 5.82545 50.3483 8.20108C50.6103 8.63778 52.5318 10.5592 49.9116 13.4414"
          stroke="#FCC01C" stroke-width="2.09613" stroke-linecap="round" stroke-linejoin="round"/>
    <path d="M56.4655 6.01758C55.563 7.09476 54.2995 9.84303 56.4655 12.2187C56.7275 12.6554 58.6489 14.5768 56.0288 17.459"
          stroke="#FCC01C" stroke-width="2.09613" stroke-linecap="round" stroke-linejoin="round"/>
    <path d="M89.226 30.2088C89.226 35.8524 84.651 40.4274 79.0075 40.4274C73.3639 40.4274 68.7889 35.8524 68.7889 30.2088C68.7889 24.5651 73.3639 19.9901 79.0075 19.9901C84.651 19.9901 89.226 24.5651 89.226 30.2088Z"
          stroke="#FCC01C" stroke-width="3.14419"/>
    <path d="M0.685547 21.6022C1.41919 19.6763 2.97818 19.2713 3.66596 19.3095V41.0897H0.685547V21.6022Z"
          fill="#FCC01C"/>
    <path d="M12.4902 41.0886V12.2012H15.6999V25.8425L29.4557 12.2012H33.5824L15.6999 29.6253V41.0886H12.4902Z"
          fill="#FCC01C"/>
    <path d="M29.685 41.3179L17.7633 29.6253C19.0472 29.0751 21.2786 29.3961 22.2339 29.6253L33.9263 41.3179H29.685Z"
          fill="#FCC01C"/>
    <path d="M98.127 40.9748V12.0874H101.337V25.7287L115.092 12.0874H119.219L101.337 29.5116V40.9748H98.127Z"
          fill="#FCC01C"/>
    <path d="M115.322 41.2041L103.4 29.5116C104.684 28.9613 106.915 29.2823 107.871 29.5116L119.563 41.2041H115.322Z"
          fill="#FCC01C"/>
    <ellipse cx="2.29263" cy="13.4616" rx="2.29263" ry="2.29265" fill="#FCC01C"/>
</svg>
