<svg width="13" height="12" viewBox="0 0 13 12" fill="none" xmlns="http://www.w3.org/2000/svg">
    <path d="M8.66667 1.1665C8.94281 1.1665 9.16667 0.942646 9.16667 0.666504C9.16667 0.390362 8.94281 0.166504 8.66667 0.166504V1.1665ZM1.39468 11.1878L1.62168 10.7423H1.62168L1.39468 11.1878ZM0.811996 10.6052L0.366493 10.8322H0.366493L0.811996 10.6052ZM11.188 10.6052L10.7425 10.3782L11.188 10.6052ZM10.6053 11.1878L10.3783 10.7423L10.6053 11.1878ZM1.39468 0.811829L1.62168 1.25733H1.62168L1.39468 0.811829ZM0.811996 1.39452L1.2575 1.62151V1.62151L0.811996 1.39452ZM11.8333 6.6665C11.8333 6.39036 11.6095 6.1665 11.3333 6.1665C11.0572 6.1665 10.8333 6.39036 10.8333 6.6665H11.8333ZM6.51472 7.52348L6.15993 7.17117L6.51472 7.52348ZM12.3548 2.35216C12.5494 2.15622 12.5483 1.83963 12.3523 1.64505C12.1564 1.45047 11.8398 1.45158 11.6452 1.64752L12.3548 2.35216ZM5.56863 7.52348L5.92341 7.17117L5.56863 7.52348ZM3.68812 4.92025C3.49354 4.7243 3.17696 4.7232 2.98102 4.91778C2.78508 5.11236 2.78397 5.42894 2.97856 5.62488L3.68812 4.92025ZM2.8 1.1665H8.66667V0.166504H2.8V1.1665ZM9.2 10.8332H2.8V11.8332H9.2V10.8332ZM1.16667 9.19984V2.79984H0.166672V9.19984H1.16667ZM2.8 10.8332C2.41839 10.8332 2.16224 10.8328 1.96499 10.8167C1.77357 10.801 1.68205 10.7731 1.62168 10.7423L1.16769 11.6333C1.39253 11.7479 1.6303 11.7927 1.88356 11.8133C2.13098 11.8336 2.43489 11.8332 2.8 11.8332V10.8332ZM0.166672 9.19984C0.166672 9.56495 0.166283 9.86886 0.186498 10.1163C0.20719 10.3695 0.251931 10.6073 0.366493 10.8322L1.2575 10.3782C1.22674 10.3178 1.19882 10.2263 1.18318 10.0349C1.16706 9.8376 1.16667 9.58146 1.16667 9.19984H0.166672ZM1.62168 10.7423C1.46488 10.6624 1.33739 10.535 1.2575 10.3782L0.366493 10.8322C0.542261 11.1771 0.822725 11.4576 1.16769 11.6333L1.62168 10.7423ZM10.8333 9.19984C10.8333 9.58146 10.8329 9.8376 10.8168 10.0349C10.8012 10.2263 10.7733 10.3178 10.7425 10.3782L11.6335 10.8322C11.7481 10.6073 11.7928 10.3695 11.8135 10.1163C11.8337 9.86886 11.8333 9.56495 11.8333 9.19984H10.8333ZM9.2 11.8332C9.56512 11.8332 9.86903 11.8336 10.1165 11.8133C10.3697 11.7927 10.6075 11.7479 10.8323 11.6333L10.3783 10.7423C10.318 10.7731 10.2264 10.801 10.035 10.8167C9.83777 10.8328 9.58162 10.8332 9.2 10.8332V11.8332ZM10.7425 10.3782C10.6626 10.535 10.5351 10.6624 10.3783 10.7423L10.8323 11.6333C11.1773 11.4576 11.4577 11.1771 11.6335 10.8322L10.7425 10.3782ZM2.8 0.166504C2.43489 0.166504 2.13098 0.166115 1.88356 0.18633C1.6303 0.207022 1.39253 0.251763 1.16769 0.366325L1.62168 1.25733C1.68205 1.22657 1.77357 1.19865 1.96499 1.18301C2.16224 1.16689 2.41839 1.1665 2.8 1.1665V0.166504ZM1.16667 2.79984C1.16667 2.41822 1.16706 2.16208 1.18318 1.96482C1.19882 1.77341 1.22674 1.68189 1.2575 1.62151L0.366493 1.16752C0.251931 1.39236 0.20719 1.63013 0.186498 1.88339C0.166283 2.13081 0.166672 2.43472 0.166672 2.79984H1.16667ZM1.16769 0.366325C0.822725 0.542093 0.542261 0.822557 0.366493 1.16752L1.2575 1.62151C1.33739 1.46471 1.46488 1.33723 1.62168 1.25733L1.16769 0.366325ZM11.8333 9.19984V6.6665H10.8333V9.19984H11.8333ZM6.8695 7.8758L12.3548 2.35216L11.6452 1.64752L6.15993 7.17117L6.8695 7.8758ZM5.92341 7.17117L3.68812 4.92025L2.97856 5.62488L5.21384 7.8758L5.92341 7.17117ZM6.15993 7.17117C6.09475 7.2368 5.98859 7.2368 5.92341 7.17117L5.21384 7.8758C5.6701 8.33526 6.41324 8.33526 6.8695 7.8758L6.15993 7.17117Z"
          fill="black"/>
</svg>
