<svg width="15" height="16" viewBox="0 0 15 16" fill="none" xmlns="http://www.w3.org/2000/svg">
    <path d="M7.5 0.5C8.19271 0.5 8.85677 0.588542 9.49219 0.765625C10.1276 0.942708 10.7266 1.19271 11.2891 1.51562C11.8516 1.83854 12.3568 2.22917 12.8047 2.6875C13.2526 3.14583 13.6432 3.65365 13.9766 4.21094C14.3099 4.76823 14.5625 5.36458 14.7344 6C14.9062 6.63542 14.9948 7.30208 15 8C15 8.69271 14.9115 9.35677 14.7344 9.99219C14.5573 10.6276 14.3073 11.2266 13.9844 11.7891C13.6615 12.3516 13.2708 12.8568 12.8125 13.3047C12.3542 13.7526 11.8464 14.1432 11.2891 14.4766C10.7318 14.8099 10.1354 15.0625 9.5 15.2344C8.86458 15.4062 8.19792 15.4948 7.5 15.5C6.80729 15.5 6.14323 15.4115 5.50781 15.2344C4.8724 15.0573 4.27344 14.8073 3.71094 14.4844C3.14844 14.1615 2.64323 13.7708 2.19531 13.3125C1.7474 12.8542 1.35677 12.3464 1.02344 11.7891C0.690104 11.2318 0.4375 10.6354 0.265625 10C0.09375 9.36458 0.00520833 8.69792 0 8C0 7.30729 0.0885417 6.64323 0.265625 6.00781C0.442708 5.3724 0.692708 4.77344 1.01562 4.21094C1.33854 3.64844 1.72917 3.14323 2.1875 2.69531C2.64583 2.2474 3.15365 1.85677 3.71094 1.52344C4.26823 1.1901 4.86458 0.9375 5.5 0.765625C6.13542 0.59375 6.80208 0.505208 7.5 0.5ZM7.5 14.5C8.09896 14.5 8.67448 14.4219 9.22656 14.2656C9.77865 14.1094 10.2943 13.8906 10.7734 13.6094C11.2526 13.3281 11.6927 12.9896 12.0938 12.5938C12.4948 12.1979 12.8333 11.7604 13.1094 11.2812C13.3854 10.8021 13.6042 10.2839 13.7656 9.72656C13.9271 9.16927 14.0052 8.59375 14 8C14 7.40104 13.9219 6.82552 13.7656 6.27344C13.6094 5.72135 13.3906 5.20573 13.1094 4.72656C12.8281 4.2474 12.4896 3.80729 12.0938 3.40625C11.6979 3.00521 11.2604 2.66667 10.7812 2.39062C10.3021 2.11458 9.78385 1.89583 9.22656 1.73438C8.66927 1.57292 8.09375 1.49479 7.5 1.5C6.90104 1.5 6.32552 1.57812 5.77344 1.73438C5.22135 1.89062 4.70573 2.10938 4.22656 2.39062C3.7474 2.67188 3.30729 3.01042 2.90625 3.40625C2.50521 3.80208 2.16667 4.23958 1.89062 4.71875C1.61458 5.19792 1.39583 5.71615 1.23438 6.27344C1.07292 6.83073 0.994792 7.40625 1 8C1 8.59896 1.07812 9.17448 1.23438 9.72656C1.39062 10.2786 1.60938 10.7943 1.89062 11.2734C2.17188 11.7526 2.51042 12.1927 2.90625 12.5938C3.30208 12.9948 3.73958 13.3333 4.21875 13.6094C4.69792 13.8854 5.21615 14.1042 5.77344 14.2656C6.33073 14.4271 6.90625 14.5052 7.5 14.5ZM8 7.5H12V8.5H8V12.5H7V8.5H3V7.5H7V3.5H8V7.5Z"
          fill="currentColor"/>
</svg>
