<svg width="12" height="14" viewBox="0 0 12 14" fill="none" xmlns="http://www.w3.org/2000/svg">
    <path d="M3.33366 8.8335C3.05752 8.8335 2.83366 9.05735 2.83366 9.3335C2.83366 9.60964 3.05752 9.8335 3.33366 9.8335V8.8335ZM4.66699 9.8335C4.94313 9.8335 5.16699 9.60964 5.16699 9.3335C5.16699 9.05735 4.94313 8.8335 4.66699 8.8335V9.8335ZM3.33366 6.16683C3.05752 6.16683 2.83366 6.39069 2.83366 6.66683C2.83366 6.94297 3.05752 7.16683 3.33366 7.16683V6.16683ZM7.33366 7.16683C7.6098 7.16683 7.83366 6.94297 7.83366 6.66683C7.83366 6.39069 7.6098 6.16683 7.33366 6.16683V7.16683ZM3.33366 3.50016C3.05752 3.50016 2.83366 3.72402 2.83366 4.00016C2.83366 4.27631 3.05752 4.50016 3.33366 4.50016V3.50016ZM7.33366 4.50016C7.6098 4.50016 7.83366 4.27631 7.83366 4.00016C7.83366 3.72402 7.6098 3.50016 7.33366 3.50016V4.50016ZM9.50033 7.66683C9.50033 7.94297 9.72418 8.16683 10.0003 8.16683C10.2765 8.16683 10.5003 7.94297 10.5003 7.66683H9.50033ZM4.66699 13.8335C4.94313 13.8335 5.16699 13.6096 5.16699 13.3335C5.16699 13.0574 4.94313 12.8335 4.66699 12.8335V13.8335ZM1.38569 13.1834L1.61618 12.7397L1.61618 12.7397L1.38569 13.1834ZM0.817108 12.6148L0.373401 12.8453L0.373401 12.8453L0.817108 12.6148ZM9.28162 1.48361L9.05114 1.92732V1.92732L9.28162 1.48361ZM9.85021 2.0522L9.4065 2.28268V2.28268L9.85021 2.0522ZM1.38569 1.48361L1.15521 1.0399L1.38569 1.48361ZM0.817108 2.0522L0.373401 1.82171V1.82171L0.817108 2.0522ZM11.6872 11.0204C11.8825 10.8251 11.8825 10.5085 11.6872 10.3133C11.4919 10.118 11.1754 10.118 10.9801 10.3133L11.6872 11.0204ZM8.43129 13.0978L8.07774 13.4513L8.43129 13.0978ZM7.68721 11.6466C7.49195 11.4513 7.17537 11.4513 6.9801 11.6466C6.78484 11.8419 6.78484 12.1585 6.9801 12.3537L7.68721 11.6466ZM3.33366 9.8335H4.66699V8.8335H3.33366V9.8335ZM3.33366 7.16683H7.33366V6.16683H3.33366V7.16683ZM3.33366 4.50016H7.33366V3.50016H3.33366V4.50016ZM2.81366 1.8335H7.85366V0.833496H2.81366V1.8335ZM9.50033 3.48016V7.66683H10.5003V3.48016H9.50033ZM4.66699 12.8335H2.81366V13.8335H4.66699V12.8335ZM1.16699 11.1868V3.48016H0.166992V11.1868H1.16699ZM2.81366 12.8335C2.42561 12.8335 2.16514 12.8331 1.96468 12.8164C1.7702 12.8003 1.67741 12.7715 1.61618 12.7397L1.15521 13.6271C1.38296 13.7454 1.62449 13.7916 1.88192 13.813C2.13337 13.8339 2.44239 13.8335 2.81366 13.8335V12.8335ZM0.166992 11.1868C0.166992 11.5581 0.16659 11.8671 0.187472 12.1186C0.20885 12.376 0.255091 12.6175 0.373401 12.8453L1.26081 12.3843C1.22901 12.3231 1.20019 12.2303 1.18404 12.0358C1.16739 11.8353 1.16699 11.5749 1.16699 11.1868H0.166992ZM1.61618 12.7397C1.46398 12.6606 1.33988 12.5365 1.26081 12.3843L0.373401 12.8453C0.54734 13.1801 0.82036 13.4531 1.15521 13.6271L1.61618 12.7397ZM7.85366 1.8335C8.24171 1.8335 8.50218 1.8339 8.70264 1.85055C8.89711 1.8667 8.98991 1.89551 9.05114 1.92732L9.51211 1.0399C9.28436 0.921595 9.04283 0.875354 8.7854 0.853976C8.53395 0.833094 8.22493 0.833496 7.85366 0.833496V1.8335ZM10.5003 3.48016C10.5003 3.10889 10.5007 2.79987 10.4798 2.54842C10.4585 2.29099 10.4122 2.04947 10.2939 1.82171L9.4065 2.28268C9.43831 2.34391 9.46713 2.43671 9.48328 2.63118C9.49992 2.83164 9.50033 3.09211 9.50033 3.48016H10.5003ZM9.05114 1.92732C9.20334 2.00638 9.32744 2.13048 9.4065 2.28268L10.2939 1.82171C10.12 1.48686 9.84696 1.21384 9.51211 1.0399L9.05114 1.92732ZM2.81366 0.833496C2.44239 0.833496 2.13337 0.833094 1.88192 0.853976C1.62449 0.875354 1.38296 0.921595 1.15521 1.0399L1.61618 1.92732C1.67741 1.89551 1.7702 1.8667 1.96468 1.85055C2.16514 1.8339 2.42561 1.8335 2.81366 1.8335V0.833496ZM1.16699 3.48016C1.16699 3.09211 1.16739 2.83164 1.18404 2.63118C1.20019 2.43671 1.22901 2.34391 1.26081 2.28268L0.373401 1.82171C0.255091 2.04947 0.20885 2.29099 0.187472 2.54842C0.16659 2.79987 0.166992 3.1089 0.166992 3.48016H1.16699ZM1.15521 1.0399C0.82036 1.21384 0.547339 1.48686 0.373401 1.82171L1.26081 2.28268C1.33988 2.13048 1.46398 2.00638 1.61618 1.92732L1.15521 1.0399ZM9.25625 13.4513L11.6872 11.0204L10.9801 10.3133L8.54914 12.7442L9.25625 13.4513ZM8.78484 12.7442L7.68721 11.6466L6.9801 12.3537L8.07774 13.4513L8.78484 12.7442ZM8.54914 12.7442C8.61423 12.6792 8.71976 12.6792 8.78484 12.7442L8.07774 13.4513C8.40317 13.7768 8.93081 13.7768 9.25625 13.4513L8.54914 12.7442Z"
          fill="currentColor"/>
</svg>
