<svg width="14" height="13" viewBox="0 0 14 13" fill="none" xmlns="http://www.w3.org/2000/svg">
    <path d="M12.75 1.375H10.125V0.375C10.125 0.30625 10.0688 0.25 10 0.25H9.125C9.05625 0.25 9 0.30625 9 0.375V1.375H5V0.375C5 0.30625 4.94375 0.25 4.875 0.25H4C3.93125 0.25 3.875 0.30625 3.875 0.375V1.375H1.25C0.973437 1.375 0.75 1.59844 0.75 1.875V12.25C0.75 12.5266 0.973437 12.75 1.25 12.75H12.75C13.0266 12.75 13.25 12.5266 13.25 12.25V1.875C13.25 1.59844 13.0266 1.375 12.75 1.375ZM12.125 11.625H1.875V5.6875H12.125V11.625ZM1.875 4.625V2.5H3.875V3.25C3.875 3.31875 3.93125 3.375 4 3.375H4.875C4.94375 3.375 5 3.31875 5 3.25V2.5H9V3.25C9 3.31875 9.05625 3.375 9.125 3.375H10C10.0688 3.375 10.125 3.31875 10.125 3.25V2.5H12.125V4.625H1.875Z"
          fill="currentColor"/>
</svg>
