<svg width="14" height="9" viewBox="0 0 14 9" fill="none" xmlns="http://www.w3.org/2000/svg">
<path d="M10.5003 4.41675H11.667C12.3113 4.41675 12.8337 4.93908 12.8337 5.58341V6.16675C12.8337 6.81108 12.3113 7.33341 11.667 7.33341M10.5003 4.41675L9.59957 1.71448C9.44077 1.23808 8.99494 0.916748 8.49277 0.916748H5.83366M10.5003 4.41675H5.83366M2.33366 4.41675L3.23441 1.71448C3.39321 1.23808 3.83904 0.916748 4.34121 0.916748H5.83366M2.33366 4.41675H5.83366M2.33366 4.41675C1.68933 4.41675 1.16699 4.93908 1.16699 5.58341V6.16675C1.16699 6.81108 1.68933 7.33341 2.33366 7.33341M5.83366 4.41675V0.916748M4.66699 7.33341H9.33366M4.66699 7.33341C4.66699 7.97775 4.14466 8.50008 3.50033 8.50008C2.85599 8.50008 2.33366 7.97775 2.33366 7.33341M4.66699 7.33341C4.66699 6.68908 4.14466 6.16675 3.50033 6.16675C2.85599 6.16675 2.33366 6.68908 2.33366 7.33341M9.33366 7.33341C9.33366 7.97775 9.85599 8.50008 10.5003 8.50008C11.1447 8.50008 11.667 7.97775 11.667 7.33341M9.33366 7.33341C9.33366 6.68908 9.85599 6.16675 10.5003 6.16675C11.1447 6.16675 11.667 6.68908 11.667 7.33341" stroke="#A07A13"/>
</svg>
