<svg width="12" height="12" viewBox="0 0 12 12" fill="none" xmlns="http://www.w3.org/2000/svg">
    <path d="M5.06667 8.8L9.76667 4.1L8.83333 3.16667L5.06667 6.93333L3.16667 5.03333L2.23333 5.96667L5.06667 8.8ZM1.33333 12C0.966667 12 0.652667 11.8696 0.391333 11.6087C0.130444 11.3473 0 11.0333 0 10.6667V1.33333C0 0.966667 0.130444 0.652667 0.391333 0.391333C0.652667 0.130444 0.966667 0 1.33333 0H10.6667C11.0333 0 11.3473 0.130444 11.6087 0.391333C11.8696 0.652667 12 0.966667 12 1.33333V10.6667C12 11.0333 11.8696 11.3473 11.6087 11.6087C11.3473 11.8696 11.0333 12 10.6667 12H1.33333ZM1.33333 10.6667H10.6667V1.33333H1.33333V10.6667Z"
          fill="currentColor"/>
</svg>
