<svg width="14" height="13" viewBox="0 0 14 13" fill="none" xmlns="http://www.w3.org/2000/svg">
    <path d="M3.10747 9.83933L11.0001 9.83333M7.00014 0.5C8.2788 0.5 9.3468 1.4 9.6068 2.60067C9.94487 2.50918 10.2976 2.48517 10.645 2.53002C10.9923 2.57487 11.3274 2.6877 11.6312 2.86205C11.9349 3.03641 12.2013 3.26889 12.4152 3.54621C12.6291 3.82353 12.7863 4.14027 12.8778 4.47833C12.9693 4.8164 12.9933 5.16918 12.9484 5.51652C12.9036 5.86386 12.7908 6.19897 12.6164 6.50271C12.4421 6.80645 12.2096 7.07288 11.9323 7.28677C11.6549 7.50067 11.3382 7.65785 11.0001 7.74933V12.5H3.00014V7.74933C2.65406 7.66513 2.32835 7.51248 2.04221 7.3004C1.75606 7.08831 1.51528 6.82108 1.33406 6.51446C1.15284 6.20783 1.03484 5.86803 0.987034 5.51508C0.939227 5.16213 0.962573 4.80318 1.0557 4.4594C1.14882 4.11562 1.30984 3.79396 1.52925 3.51339C1.74866 3.23283 2.02203 2.99904 2.33324 2.8258C2.64444 2.65257 2.98718 2.5434 3.34125 2.50473C3.69532 2.46607 4.05354 2.49869 4.3948 2.60067C4.52391 2.00565 4.8528 1.47276 5.32678 1.09059C5.80076 0.708424 6.39128 0.500008 7.00014 0.5V0.5Z"
          stroke="currentColor" stroke-linecap="round" stroke-linejoin="round"/>
</svg>
