<svg width="14" height="15" viewBox="0 0 14 15" fill="none" xmlns="http://www.w3.org/2000/svg">
<path d="M6.99513 12.7501C6.25893 12.1216 5.57654 11.4326 4.95508 10.6903C4.02249 9.57559 2.91504 7.91543 2.91504 6.33343C2.91464 5.52549 3.15373 4.73559 3.60206 4.06369C4.0504 3.3918 4.68782 2.86811 5.43366 2.55891C6.1795 2.24971 7.00023 2.16889 7.79198 2.32668C8.58373 2.48447 9.31092 2.87378 9.8815 3.44534C10.2614 3.82385 10.5625 4.27399 10.7674 4.76973C10.9723 5.26547 11.0769 5.79695 11.0752 6.33343C11.0752 7.91543 9.96777 9.57559 9.03518 10.6903C8.41372 11.4326 7.73133 12.1216 6.99513 12.7501ZM6.99513 4.58343C6.53137 4.58343 6.0866 4.7678 5.75868 5.09599C5.43075 5.42418 5.24652 5.8693 5.24652 6.33343C5.24652 6.79756 5.43075 7.24268 5.75868 7.57087C6.0866 7.89905 6.53137 8.08343 6.99513 8.08343C7.45889 8.08343 7.90366 7.89905 8.23158 7.57087C8.55951 7.24268 8.74374 6.79756 8.74374 6.33343C8.74374 5.8693 8.55951 5.42418 8.23158 5.09599C7.90366 4.7678 7.45889 4.58343 6.99513 4.58343Z" fill="#FCC01C"/>
</svg>
