<svg width="26" height="26" viewBox="0 0 26 26" fill="none" xmlns="http://www.w3.org/2000/svg">
    <path d="M13 0.5C6.0875 0.5 0.5 6.0875 0.5 13C0.5 19.9125 6.0875 25.5 13 25.5C19.9125 25.5 25.5 19.9125 25.5 13C25.5 6.0875 19.9125 0.5 13 0.5ZM18.375 18.375C18.2594 18.4909 18.122 18.5828 17.9708 18.6455C17.8196 18.7083 17.6575 18.7406 17.4937 18.7406C17.33 18.7406 17.1679 18.7083 17.0167 18.6455C16.8655 18.5828 16.7281 18.4909 16.6125 18.375L13 14.7625L9.3875 18.375C9.15378 18.6087 8.83678 18.74 8.50625 18.74C8.17572 18.74 7.85872 18.6087 7.625 18.375C7.39128 18.1413 7.25997 17.8243 7.25997 17.4937C7.25997 17.3301 7.29221 17.168 7.35484 17.0168C7.41747 16.8656 7.50927 16.7282 7.625 16.6125L11.2375 13L7.625 9.3875C7.39128 9.15378 7.25997 8.83678 7.25997 8.50625C7.25997 8.17572 7.39128 7.85872 7.625 7.625C7.85872 7.39128 8.17572 7.25997 8.50625 7.25997C8.83678 7.25997 9.15378 7.39128 9.3875 7.625L13 11.2375L16.6125 7.625C16.7282 7.50927 16.8656 7.41747 17.0168 7.35484C17.168 7.29221 17.3301 7.25997 17.4937 7.25997C17.6574 7.25997 17.8195 7.29221 17.9707 7.35484C18.1219 7.41747 18.2593 7.50927 18.375 7.625C18.4907 7.74073 18.5825 7.87812 18.6452 8.02932C18.7078 8.18053 18.74 8.34259 18.74 8.50625C18.74 8.66991 18.7078 8.83197 18.6452 8.98318C18.5825 9.13438 18.4907 9.27177 18.375 9.3875L14.7625 13L18.375 16.6125C18.85 17.0875 18.85 17.8875 18.375 18.375Z"
          fill="#323335"/>
</svg>
