<svg width="16" height="16" viewBox="0 0 16 16" fill="none" xmlns="http://www.w3.org/2000/svg">
<g clip-path="url(#clip0_2333_46674)">
<path d="M6.66699 6.66675L9.33366 9.33341M9.33366 6.66675L6.66699 9.33341M2.66699 5.33341V10.6667M10.667 2.66675L5.33366 2.66675M13.3337 5.33341V10.6667M10.667 13.3334H5.33366M1.73366 4.66675H3.60033C3.97369 4.66675 4.16038 4.66675 4.30299 4.59409C4.42843 4.53017 4.53041 4.42818 4.59433 4.30274C4.66699 4.16013 4.66699 3.97345 4.66699 3.60008V1.73341C4.66699 1.36005 4.66699 1.17336 4.59433 1.03075C4.53041 0.905313 4.42843 0.803326 4.30299 0.73941C4.16038 0.666748 3.97369 0.666748 3.60033 0.666748H1.73366C1.36029 0.666748 1.17361 0.666748 1.031 0.73941C0.905557 0.803326 0.80357 0.905313 0.739655 1.03075C0.666992 1.17336 0.666992 1.36005 0.666992 1.73341V3.60008C0.666992 3.97345 0.666992 4.16013 0.739655 4.30274C0.80357 4.42818 0.905557 4.53017 1.031 4.59409C1.17361 4.66675 1.36029 4.66675 1.73366 4.66675ZM1.73366 15.3334H3.60033C3.97369 15.3334 4.16038 15.3334 4.30299 15.2608C4.42843 15.1968 4.53041 15.0948 4.59433 14.9694C4.66699 14.8268 4.66699 14.6401 4.66699 14.2667V12.4001C4.66699 12.0267 4.66699 11.84 4.59433 11.6974C4.53041 11.572 4.42843 11.47 4.30299 11.4061C4.16038 11.3334 3.97369 11.3334 3.60033 11.3334H1.73366C1.36029 11.3334 1.17361 11.3334 1.031 11.4061C0.905557 11.47 0.80357 11.572 0.739655 11.6974C0.666992 11.84 0.666992 12.0267 0.666992 12.4001V14.2667C0.666992 14.6401 0.666992 14.8268 0.739655 14.9694C0.80357 15.0948 0.905557 15.1968 1.031 15.2608C1.17361 15.3334 1.36029 15.3334 1.73366 15.3334ZM12.4003 4.66675H14.267C14.6404 4.66675 14.827 4.66675 14.9697 4.59409C15.0951 4.53017 15.1971 4.42818 15.261 4.30274C15.3337 4.16013 15.3337 3.97345 15.3337 3.60008V1.73341C15.3337 1.36005 15.3337 1.17336 15.261 1.03075C15.1971 0.905313 15.0951 0.803326 14.9697 0.73941C14.827 0.666748 14.6404 0.666748 14.267 0.666748H12.4003C12.027 0.666748 11.8403 0.666748 11.6977 0.73941C11.5722 0.803326 11.4702 0.905313 11.4063 1.03075C11.3337 1.17336 11.3337 1.36005 11.3337 1.73341V3.60008C11.3337 3.97345 11.3337 4.16013 11.4063 4.30274C11.4702 4.42818 11.5722 4.53017 11.6977 4.59409C11.8403 4.66675 12.027 4.66675 12.4003 4.66675ZM12.4003 15.3334H14.267C14.6404 15.3334 14.827 15.3334 14.9697 15.2608C15.0951 15.1968 15.1971 15.0948 15.261 14.9694C15.3337 14.8268 15.3337 14.6401 15.3337 14.2667V12.4001C15.3337 12.0267 15.3337 11.84 15.261 11.6974C15.1971 11.572 15.0951 11.47 14.9697 11.4061C14.827 11.3334 14.6404 11.3334 14.267 11.3334H12.4003C12.027 11.3334 11.8403 11.3334 11.6977 11.4061C11.5722 11.47 11.4702 11.572 11.4063 11.6974C11.3337 11.84 11.3337 12.0267 11.3337 12.4001V14.2667C11.3337 14.6401 11.3337 14.8268 11.4063 14.9694C11.4702 15.0948 11.5722 15.1968 11.6977 15.2608C11.8403 15.3334 12.027 15.3334 12.4003 15.3334Z" stroke="black" stroke-linecap="round"/>
</g>
<defs>
<clipPath id="clip0_2333_46674">
<rect width="16" height="16" fill="white"/>
</clipPath>
</defs>
</svg>
