<svg width="12" height="11" viewBox="0 0 12 11" fill="none" xmlns="http://www.w3.org/2000/svg">
<path d="M0 4C0 3.17266 0.672656 2.5 1.5 2.5H1.5375C1.71094 1.64453 2.46797 1 3.375 1C3.72656 1 4.05469 1.09609 4.33359 1.2625C4.64531 0.6625 5.27578 0.25 6 0.25C6.72422 0.25 7.35469 0.6625 7.66641 1.2625C7.94531 1.09609 8.27344 1 8.625 1C9.53203 1 10.2891 1.64453 10.4625 2.5H10.5C11.3273 2.5 12 3.17266 12 4C12 4.27422 11.9273 4.52969 11.7984 4.75H0.201563C0.0726563 4.52969 0 4.27422 0 4ZM0 6.14219C0 5.78828 0.288281 5.5 0.642187 5.5H11.3578C11.7117 5.5 12 5.78828 12 6.14219C12 7.79453 10.9594 9.20547 9.49922 9.75391L9.45703 10.0938C9.41016 10.4688 9.09141 10.75 8.71172 10.75H3.28594C2.90859 10.75 2.5875 10.4688 2.54063 10.0938L2.49844 9.75625C1.04062 9.20547 0 7.79453 0 6.14219Z" fill="#FCC01C"/>
</svg>
