<svg width="12" height="12" viewBox="0 0 12 12" fill="none" xmlns="http://www.w3.org/2000/svg">
    <path d="M2.66699 12C2.30033 12 1.98655 11.8696 1.72566 11.6087C1.46433 11.3473 1.33366 11.0333 1.33366 10.6667V2C1.14477 2 0.986326 1.93622 0.858326 1.80867C0.73077 1.68067 0.666992 1.52222 0.666992 1.33333C0.666992 1.14444 0.73077 0.986 0.858326 0.858C0.986326 0.730445 1.14477 0.666667 1.33366 0.666667H4.00033C4.00033 0.477778 4.06433 0.319333 4.19233 0.191333C4.31988 0.0637777 4.4781 0 4.66699 0H7.33366C7.52255 0 7.68099 0.0637777 7.80899 0.191333C7.93655 0.319333 8.00033 0.477778 8.00033 0.666667H10.667C10.8559 0.666667 11.0141 0.730445 11.1417 0.858C11.2697 0.986 11.3337 1.14444 11.3337 1.33333C11.3337 1.52222 11.2697 1.68067 11.1417 1.80867C11.0141 1.93622 10.8559 2 10.667 2V10.6667C10.667 11.0333 10.5365 11.3473 10.2757 11.6087C10.0143 11.8696 9.70033 12 9.33366 12H2.66699ZM2.66699 2V10.6667H9.33366V2H2.66699ZM4.00033 8.66667C4.00033 8.85556 4.06433 9.01378 4.19233 9.14133C4.31988 9.26933 4.4781 9.33333 4.66699 9.33333C4.85588 9.33333 5.01433 9.26933 5.14233 9.14133C5.26988 9.01378 5.33366 8.85556 5.33366 8.66667V4C5.33366 3.81111 5.26988 3.65267 5.14233 3.52467C5.01433 3.39711 4.85588 3.33333 4.66699 3.33333C4.4781 3.33333 4.31988 3.39711 4.19233 3.52467C4.06433 3.65267 4.00033 3.81111 4.00033 4V8.66667ZM6.66699 8.66667C6.66699 8.85556 6.73099 9.01378 6.85899 9.14133C6.98655 9.26933 7.14477 9.33333 7.33366 9.33333C7.52255 9.33333 7.68099 9.26933 7.80899 9.14133C7.93655 9.01378 8.00033 8.85556 8.00033 8.66667V4C8.00033 3.81111 7.93655 3.65267 7.80899 3.52467C7.68099 3.39711 7.52255 3.33333 7.33366 3.33333C7.14477 3.33333 6.98655 3.39711 6.85899 3.52467C6.73099 3.65267 6.66699 3.81111 6.66699 4V8.66667ZM2.66699 2V10.6667V2Z"
          fill="currentColor"/>
</svg>
