<svg width="16" height="15" viewBox="0 0 16 15" fill="none" xmlns="http://www.w3.org/2000/svg">
    <path d="M5.33398 10.1668L10.6673 4.8335M5.66719 5.1668H6.06719M5.66719 5.5668H6.06719M9.93385 9.43346H10.3339M9.93385 9.83346H10.3339M13.6124 5.64438C13.4166 5.38316 13.3079 5.10016 13.2644 4.77363L13.0904 3.57635C13.0034 2.94506 12.5031 2.44438 11.8506 2.33554L10.6543 2.16139C10.3498 2.11785 10.0452 1.98724 9.78423 1.81309L8.84894 1.11649C8.58793 0.920571 8.28341 0.833496 7.9789 0.833496C7.67439 0.833496 7.36987 0.920571 7.10886 1.11649L6.15182 1.83486C5.89081 2.03078 5.60805 2.13962 5.28178 2.18316L4.10723 2.35731C3.47645 2.44438 2.97618 2.94506 2.86743 3.59812L2.69342 4.7954C2.64992 5.10016 2.51941 5.40492 2.3454 5.66615L1.62762 6.62397C1.23611 7.14642 1.23611 7.86479 1.62762 8.36547L2.3454 9.32329C2.54116 9.58452 2.64992 9.86751 2.69342 10.194L2.86743 11.3913C2.95443 12.0226 3.4547 12.5233 4.10723 12.6321L5.30353 12.8063C5.60805 12.8498 5.91256 12.9804 6.17357 13.1546L7.13061 13.873C7.65264 14.2648 8.37042 14.2648 8.87069 13.873L9.82773 13.1546C10.0887 12.9587 10.3715 12.8498 10.6978 12.8063L11.8941 12.6321C12.5248 12.5451 13.0251 12.0444 13.1339 11.3913L13.3079 10.194C13.3514 9.88928 13.4819 9.58452 13.6559 9.32329L14.3737 8.36547C14.7652 7.84302 14.7652 7.12465 14.3737 6.62397L13.6124 5.64438ZM6.40065 5.36683C6.40065 5.66138 6.16187 5.90016 5.86732 5.90016C5.57277 5.90016 5.33398 5.66138 5.33398 5.36683C5.33398 5.07228 5.57277 4.8335 5.86732 4.8335C6.16187 4.8335 6.40065 5.07228 6.40065 5.36683ZM10.6673 9.6335C10.6673 9.92805 10.4285 10.1668 10.134 10.1668C9.83943 10.1668 9.60065 9.92805 9.60065 9.6335C9.60065 9.33894 9.83943 9.10016 10.134 9.10016C10.4285 9.10016 10.6673 9.33894 10.6673 9.6335Z"
          stroke="currentColor" stroke-linecap="round"/>
</svg>
