<svg width="16" height="16" viewBox="0 0 16 16" fill="none" xmlns="http://www.w3.org/2000/svg">
    <path d="M2 6.66667H9.33333V8H2V6.66667ZM2 5.33333H9.33333V4H2V5.33333ZM2 10.6667H6.66667V9.33333H2V10.6667ZM12.0067 8.58L12.48 8.10667C12.5417 8.04486 12.6149 7.99583 12.6956 7.96238C12.7762 7.92892 12.8627 7.9117 12.95 7.9117C13.0373 7.9117 13.1238 7.92892 13.2044 7.96238C13.2851 7.99583 13.3583 8.04486 13.42 8.10667L13.8933 8.58C14.1533 8.84 14.1533 9.26 13.8933 9.52L13.42 9.99333L12.0067 8.58ZM11.5333 9.05333L8 12.5867V14H9.41333L12.9467 10.4667L11.5333 9.05333Z"
          fill="currentColor"/>
</svg>
