<svg width="14" height="11" viewBox="0 0 14 11" fill="none" xmlns="http://www.w3.org/2000/svg">
    <path d="M0.599609 2.9002C0.599609 2.31672 0.831394 1.75714 1.24397 1.34456C1.65655 0.93198 2.21613 0.700195 2.79961 0.700195H11.1996C11.7831 0.700195 12.3427 0.93198 12.7552 1.34456C13.1678 1.75714 13.3996 2.31672 13.3996 2.9002V8.1002C13.3996 8.68367 13.1678 9.24325 12.7552 9.65583C12.3427 10.0684 11.7831 10.3002 11.1996 10.3002H2.79961C2.21613 10.3002 1.65655 10.0684 1.24397 9.65583C0.831394 9.24325 0.599609 8.68367 0.599609 8.1002V2.9002ZM1.39961 5.5002V8.1002C1.39961 8.873 2.02681 9.5002 2.79961 9.5002H4.59961V6.0658L3.28281 7.3834C3.2077 7.4585 3.10583 7.5007 2.99961 7.5007C2.89339 7.5007 2.79152 7.4585 2.71641 7.3834C2.6413 7.30829 2.5991 7.20642 2.5991 7.1002C2.5991 6.99397 2.6413 6.8921 2.71641 6.817L4.03401 5.5002H1.39961ZM2.41401 4.7002C2.23793 4.39517 2.16742 4.04058 2.2134 3.69139C2.25938 3.34221 2.41929 3.01796 2.66833 2.76892C2.91737 2.51988 3.24163 2.35997 3.59081 2.31399C3.93999 2.268 4.29459 2.33852 4.59961 2.5146V1.5002H2.79961C2.42831 1.5002 2.07221 1.6477 1.80966 1.91025C1.54711 2.1728 1.39961 2.52889 1.39961 2.9002V4.7002H2.41401ZM3.79961 4.7002H4.59961V3.9002C4.59961 3.74197 4.55269 3.5873 4.46479 3.45574C4.37688 3.32418 4.25194 3.22164 4.10576 3.16109C3.95958 3.10054 3.79872 3.0847 3.64354 3.11557C3.48835 3.14644 3.34581 3.22263 3.23392 3.33451C3.12204 3.44639 3.04585 3.58894 3.01498 3.74412C2.98411 3.89931 2.99996 4.06016 3.06051 4.20634C3.12106 4.35252 3.22359 4.47747 3.35515 4.56537C3.48671 4.65328 3.64138 4.7002 3.79961 4.7002ZM5.39961 3.9002V4.7002H6.19961C6.35783 4.7002 6.51251 4.65328 6.64407 4.56537C6.77563 4.47747 6.87816 4.35252 6.93871 4.20634C6.99926 4.06016 7.01511 3.89931 6.98424 3.74412C6.95337 3.58894 6.87718 3.44639 6.76529 3.33451C6.65341 3.22263 6.51087 3.14644 6.35568 3.11557C6.2005 3.0847 6.03964 3.10054 5.89346 3.16109C5.74728 3.22164 5.62234 3.32418 5.53443 3.45574C5.44653 3.5873 5.39961 3.74197 5.39961 3.9002ZM7.58521 4.7002H12.5996V2.9002C12.5996 2.52889 12.4521 2.1728 12.1896 1.91025C11.927 1.6477 11.5709 1.5002 11.1996 1.5002H5.39961V2.5146C5.70463 2.33852 6.05923 2.268 6.40841 2.31399C6.75759 2.35997 7.08184 2.51988 7.33088 2.76892C7.57992 3.01796 7.73983 3.34221 7.78582 3.69139C7.8318 4.04058 7.76129 4.39517 7.58521 4.7002ZM5.96521 5.5002L7.28281 6.817C7.35792 6.8921 7.40011 6.99397 7.40011 7.1002C7.40011 7.20642 7.35792 7.30829 7.28281 7.3834C7.2077 7.4585 7.10583 7.5007 6.99961 7.5007C6.89339 7.5007 6.79152 7.4585 6.71641 7.3834L5.39961 6.0658V9.5002H11.1996C11.5709 9.5002 11.927 9.3527 12.1896 9.09015C12.4521 8.82759 12.5996 8.4715 12.5996 8.1002V5.5002H5.96521Z"
          fill="currentColor"/>
</svg>
