<svg width="16" height="17" viewBox="0 0 16 17" fill="none" xmlns="http://www.w3.org/2000/svg">
    <path d="M2.48605 15.4699L2.71304 15.0244H2.71304L2.48605 15.4699ZM1.02933 14.0131L1.47483 13.7861H1.47483L1.02933 14.0131ZM14.9694 14.0131L14.5239 13.7861L14.9694 14.0131ZM13.5127 15.4699L13.2857 15.0244L13.5127 15.4699ZM13.5127 1.52982L13.2857 1.97532V1.97532L13.5127 1.52982ZM14.9694 2.98654L14.5239 3.21353V3.21353L14.9694 2.98654ZM2.48605 1.52982L2.71304 1.97532H2.71304L2.48605 1.52982ZM1.02933 2.98654L1.47483 3.21353V3.21353L1.02933 2.98654ZM7.49935 12.4998C7.49935 12.776 7.72321 12.9998 7.99935 12.9998C8.27549 12.9998 8.49935 12.776 8.49935 12.4998H7.49935ZM8.49935 4.49984C8.49935 4.22369 8.27549 3.99984 7.99935 3.99984C7.72321 3.99984 7.49935 4.22369 7.49935 4.49984H8.49935ZM4.16602 12.4998C4.16602 12.776 4.38987 12.9998 4.66602 12.9998C4.94216 12.9998 5.16602 12.776 5.16602 12.4998H4.16602ZM5.16602 7.1665C5.16602 6.89036 4.94216 6.6665 4.66602 6.6665C4.38987 6.6665 4.16602 6.89036 4.16602 7.1665H5.16602ZM10.8327 12.4998C10.8327 12.776 11.0565 12.9998 11.3327 12.9998C11.6088 12.9998 11.8327 12.776 11.8327 12.4998H10.8327ZM11.8327 9.83317C11.8327 9.55703 11.6088 9.33317 11.3327 9.33317C11.0565 9.33317 10.8327 9.55703 10.8327 9.83317H11.8327ZM5.99935 1.6665H9.99935V0.666504H5.99935V1.6665ZM14.8327 6.49984V10.4998H15.8327V6.49984H14.8327ZM9.99935 15.3332H5.99935V16.3332H9.99935V15.3332ZM1.16602 10.4998V6.49984H0.166016V10.4998H1.16602ZM5.99935 15.3332C5.05768 15.3332 4.38149 15.3328 3.85074 15.2894C3.32582 15.2465 2.98733 15.1641 2.71304 15.0244L2.25905 15.9154C2.69781 16.1389 3.18255 16.2382 3.76931 16.2861C4.35023 16.3336 5.07418 16.3332 5.99935 16.3332V15.3332ZM0.166016 10.4998C0.166016 11.425 0.165627 12.149 0.21309 12.7299C0.26103 13.3166 0.360268 13.8014 0.583824 14.2401L1.47483 13.7861C1.33507 13.5119 1.25266 13.1734 1.20977 12.6484C1.1664 12.1177 1.16602 11.4415 1.16602 10.4998H0.166016ZM2.71304 15.0244C2.17992 14.7527 1.74647 14.3193 1.47483 13.7861L0.583824 14.2401C0.951338 14.9614 1.53776 15.5478 2.25905 15.9154L2.71304 15.0244ZM14.8327 10.4998C14.8327 11.4415 14.8323 12.1177 14.7889 12.6484C14.746 13.1734 14.6636 13.5119 14.5239 13.7861L15.4149 14.2401C15.6384 13.8014 15.7377 13.3166 15.7856 12.7299C15.8331 12.149 15.8327 11.425 15.8327 10.4998H14.8327ZM9.99935 16.3332C10.9245 16.3332 11.6485 16.3336 12.2294 16.2861C12.8162 16.2382 13.3009 16.1389 13.7396 15.9154L13.2857 15.0244C13.0114 15.1641 12.6729 15.2465 12.148 15.2894C11.6172 15.3328 10.941 15.3332 9.99935 15.3332V16.3332ZM14.5239 13.7861C14.2522 14.3193 13.8188 14.7527 13.2857 15.0244L13.7396 15.9154C14.4609 15.5478 15.0474 14.9614 15.4149 14.2401L14.5239 13.7861ZM9.99935 1.6665C10.941 1.6665 11.6172 1.66689 12.148 1.71026C12.6729 1.75314 13.0114 1.83556 13.2857 1.97532L13.7396 1.08431C13.3009 0.860756 12.8162 0.761519 12.2294 0.713578C11.6485 0.666115 10.9245 0.666504 9.99935 0.666504V1.6665ZM15.8327 6.49984C15.8327 5.57467 15.8331 4.85072 15.7856 4.26979C15.7377 3.68303 15.6384 3.19829 15.4149 2.75954L14.5239 3.21353C14.6636 3.48782 14.746 3.82631 14.7889 4.35123C14.8323 4.88198 14.8327 5.55817 14.8327 6.49984H15.8327ZM13.2857 1.97532C13.8188 2.24696 14.2522 2.6804 14.5239 3.21353L15.4149 2.75954C15.0474 2.03825 14.4609 1.45183 13.7396 1.08431L13.2857 1.97532ZM5.99935 0.666504C5.07418 0.666504 4.35023 0.666115 3.76931 0.713578C3.18255 0.761519 2.69781 0.860756 2.25905 1.08431L2.71304 1.97532C2.98733 1.83556 3.32582 1.75314 3.85074 1.71026C4.38149 1.66689 5.05768 1.6665 5.99935 1.6665V0.666504ZM1.16602 6.49984C1.16602 5.55817 1.1664 4.88198 1.20977 4.35123C1.25266 3.82631 1.33507 3.48782 1.47483 3.21353L0.583824 2.75954C0.360268 3.19829 0.26103 3.68303 0.21309 4.26979C0.165627 4.85072 0.166016 5.57467 0.166016 6.49984H1.16602ZM2.25905 1.08431C1.53776 1.45183 0.951338 2.03825 0.583824 2.75954L1.47483 3.21353C1.74647 2.6804 2.17992 2.24696 2.71304 1.97532L2.25905 1.08431ZM8.49935 12.4998V4.49984H7.49935V12.4998H8.49935ZM5.16602 12.4998L5.16602 7.1665H4.16602L4.16602 12.4998H5.16602ZM11.8327 12.4998V9.83317H10.8327V12.4998H11.8327Z"
          fill="currentColor"/>
</svg>
