<svg width="16" height="16" viewBox="0 0 16 16" fill="none" xmlns="http://www.w3.org/2000/svg">
    <path d="M8 0.5C3.18 0.5 0.5 3.18 0.5 8C0.5 12.82 3.18 15.5 8 15.5C12.82 15.5 15.5 12.82 15.5 8C15.5 3.18 12.82 0.5 8 0.5ZM11.7 11.7C11.6 11.8 11.49 11.89 11.38 11.95C11.27 12.01 11.14 12.04 11 12.04C10.86 12.04 10.73 12.01 10.62 11.95C10.51 11.89 10.4 11.8 10.3 11.7L8 9.4L5.7 11.7C5.49 11.91 5.21 12.04 4.94 12.04C4.67 12.04 4.39 11.91 4.19 11.7C3.98 11.49 3.85 11.21 3.85 10.94C3.85 10.8 3.88 10.67 3.94 10.56C3.99 10.44 4.07 10.33 4.19 10.3L6.5 8L4.19 5.7C3.98 5.49 3.85 5.21 3.85 4.94C3.85 4.67 3.98 4.39 4.19 4.19C4.39 3.98 4.67 3.85 4.94 3.85C5.21 3.85 5.49 3.98 5.7 4.19L8 6.5L10.3 4.19C10.4 4.07 10.51 3.99 10.62 3.94C10.73 3.88 10.86 3.85 11 3.85C11.14 3.85 11.27 3.88 11.38 3.94C11.49 3.99 11.6 4.07 11.7 4.19C11.8 4.29 11.89 4.4 11.95 4.5C12.01 4.6 12.04 4.73 12.04 4.87C12.04 5 12.01 5.13 11.95 5.25C11.89 5.37 11.8 5.48 11.7 5.6L9.4 8L11.7 10.3C12.07 10.68 12.07 11.32 11.7 11.7Z"
          fill="currentColor"/>
</svg>
