<svg width="14" height="12" viewBox="0 0 14 12" fill="none" xmlns="http://www.w3.org/2000/svg">
    <path d="M7.83969 4.69107e-06C7.03737 -0.0229079 6.2386 0.11534 5.49064 0.406568C4.74269 0.697796 4.06074 1.13609 3.48516 1.69551C2.90958 2.25493 2.45205 2.92412 2.13964 3.66348C1.82724 4.40284 1.6663 5.19735 1.66636 6H0.473028C0.173028 6 0.0263615 6.36 0.239695 6.56667L2.09969 8.42667C2.23303 8.56001 2.43969 8.56001 2.57303 8.42667L4.43969 6.56667C4.63969 6.36 4.49303 6 4.19303 6H2.99969C2.99969 3.40667 5.13303 1.29334 7.73303 1.33334C10.2064 1.36667 12.293 3.45334 12.333 5.93334C12.373 8.54 10.2664 10.6667 7.66636 10.6667C6.60636 10.6667 5.63303 10.3133 4.84636 9.71334C4.5797 9.51334 4.20636 9.53334 3.97303 9.77334C3.68636 10.06 3.71303 10.5333 4.03303 10.7733C5.07666 11.57 6.35344 12.001 7.66636 12C11.0397 12 13.7597 9.22001 13.6664 5.83334C13.5797 2.7 10.9664 0.0866714 7.83969 4.69107e-06ZM8.99969 5.33334V4.66667C8.99969 3.93334 8.3997 3.33334 7.66636 3.33334C6.93303 3.33334 6.33303 3.93334 6.33303 4.66667V5.33334C5.96636 5.33334 5.66636 5.63334 5.66636 6V8C5.66636 8.36667 5.96636 8.66667 6.33303 8.66667H8.99969C9.36636 8.66667 9.66636 8.36667 9.66636 8V6C9.66636 5.63334 9.36636 5.33334 8.99969 5.33334ZM8.33303 5.33334H6.99969V4.66667C6.99969 4.3 7.2997 4 7.66636 4C8.03303 4 8.33303 4.3 8.33303 4.66667V5.33334Z"
          fill="currentColor"/>
</svg>
