<svg width="12" height="15" viewBox="0 0 12 15" fill="none" xmlns="http://www.w3.org/2000/svg">
    <path d="M5.99935 14.1668C8.65002 14.1668 11.3327 13.2508 11.3327 11.5002V3.50016C11.3327 1.7495 8.65002 0.833496 5.99935 0.833496C3.34868 0.833496 0.666016 1.7495 0.666016 3.50016V11.5002C0.666016 13.2508 3.34868 14.1668 5.99935 14.1668ZM5.99935 12.8335C3.51802 12.8335 1.99935 11.9702 1.99935 11.5002V10.6548C3.02668 11.2135 4.51735 11.5002 5.99935 11.5002C7.48135 11.5002 8.97202 11.2135 9.99935 10.6548V11.5002C9.99935 11.9702 8.48068 12.8335 5.99935 12.8335ZM5.99935 2.16683C8.48068 2.16683 9.99935 3.03016 9.99935 3.50016C9.99935 3.97016 8.48068 4.8335 5.99935 4.8335C3.51802 4.8335 1.99935 3.97016 1.99935 3.50016C1.99935 3.03016 3.51802 2.16683 5.99935 2.16683ZM1.99935 5.3215C3.02668 5.88016 4.51735 6.16683 5.99935 6.16683C7.48135 6.16683 8.97202 5.88016 9.99935 5.3215V6.16683C9.99935 6.63683 8.48068 7.50016 5.99935 7.50016C3.51802 7.50016 1.99935 6.63683 1.99935 6.16683V5.3215ZM1.99935 7.98816C3.02668 8.54683 4.51735 8.8335 5.99935 8.8335C7.48135 8.8335 8.97202 8.54683 9.99935 7.98816V8.8335C9.99935 9.3035 8.48068 10.1668 5.99935 10.1668C3.51802 10.1668 1.99935 9.3035 1.99935 8.8335V7.98816Z"
          fill="currentColor"/>
</svg>
