<svg width="14" height="11" viewBox="0 0 14 11" fill="none" xmlns="http://www.w3.org/2000/svg">
    <path d="M13 9.50244V8.50244C12.9978 6.99874 12.4316 5.55059 11.4132 4.44424C10.3948 3.3379 8.99837 2.6539 7.5 2.52744V1.50244H9V0.502441H5V1.50244H6.5V2.52744C5.00163 2.6539 3.60522 3.3379 2.58683 4.44424C1.56844 5.55059 1.00219 6.99874 1 8.50244V9.50244H0V10.5024H14V9.50244H13ZM7 3.50244C8.15206 3.50403 9.26835 3.90274 10.1607 4.63136C11.0531 5.35999 11.667 6.37398 11.899 7.50244H2.101C2.33297 6.37398 2.94689 5.35999 3.83927 4.63136C4.73165 3.90274 5.84794 3.50403 7 3.50244ZM2 8.50244H12V9.50244H2V8.50244Z"
          fill="currentColor"/>
</svg>
