<svg width="16" height="17" viewBox="0 0 16 17" fill="none" xmlns="http://www.w3.org/2000/svg">
    <path d="M6.09532 14.8902C4.99267 14.561 3.99405 13.9519 3.19665 13.1222C3.45321 12.8179 3.61314 12.444 3.65598 12.0483C3.69882 11.6526 3.62262 11.2531 3.43713 10.901C3.25164 10.5488 2.9653 10.26 2.61475 10.0715C2.26419 9.88303 1.86537 9.80343 1.46932 9.84288C1.37909 9.40092 1.33375 8.95097 1.33399 8.49989C1.33399 7.80322 1.44065 7.13122 1.63932 6.49989H1.66732C2.00724 6.49999 2.34158 6.41347 2.63876 6.24847C2.93595 6.08347 3.18618 5.84545 3.36583 5.55688C3.54548 5.26831 3.64861 4.93872 3.66549 4.59922C3.68237 4.25972 3.61245 3.92152 3.46232 3.61655C4.24385 2.88883 5.189 2.35983 6.21799 2.07422C6.38544 2.40302 6.6406 2.67908 6.95522 2.87187C7.26984 3.06465 7.63166 3.16664 8.00065 3.16655C8.36964 3.16664 8.73146 3.06465 9.04608 2.87187C9.3607 2.67908 9.61586 2.40302 9.78332 2.07422C10.8123 2.35983 11.7575 2.88883 12.539 3.61655C12.3878 3.92366 12.3179 4.26443 12.3361 4.60627C12.3542 4.94811 12.4598 5.27956 12.6428 5.56889C12.8257 5.85823 13.0799 6.09577 13.3809 6.25878C13.6819 6.42179 14.0197 6.5048 14.362 6.49989C14.565 7.14712 14.6679 7.82156 14.6673 8.49989C14.6673 8.95989 14.6207 9.40922 14.532 9.84322C14.1359 9.80376 13.7371 9.88337 13.3866 10.0719C13.036 10.2603 12.7497 10.5491 12.5642 10.9013C12.3787 11.2534 12.3025 11.6529 12.3453 12.0486C12.3882 12.4443 12.5481 12.8183 12.8047 13.1226C12.0072 13.9521 11.0086 14.5611 9.90599 14.8902C9.7765 14.4867 9.52222 14.1346 9.1798 13.8849C8.83737 13.6351 8.42448 13.5005 8.00065 13.5005C7.57682 13.5005 7.16393 13.6351 6.82151 13.8849C6.47908 14.1346 6.2248 14.4867 6.09532 14.8902Z"
          stroke="currentColor" stroke-linejoin="round"/>
    <path d="M7.99935 10.8332C8.30577 10.8332 8.60918 10.7728 8.89228 10.6556C9.17537 10.5383 9.43259 10.3664 9.64926 10.1498C9.86593 9.93308 10.0378 9.67586 10.1551 9.39276C10.2723 9.10967 10.3327 8.80625 10.3327 8.49984C10.3327 8.19342 10.2723 7.89 10.1551 7.60691C10.0378 7.32382 9.86593 7.06659 9.64926 6.84992C9.43259 6.63325 9.17537 6.46138 8.89228 6.34412C8.60918 6.22686 8.30577 6.1665 7.99935 6.1665C7.38051 6.1665 6.78702 6.41234 6.34943 6.84992C5.91185 7.28751 5.66602 7.881 5.66602 8.49984C5.66602 9.11868 5.91185 9.71217 6.34943 10.1498C6.78702 10.5873 7.38051 10.8332 7.99935 10.8332V10.8332Z"
          stroke="currentColor" stroke-linejoin="round"/>
</svg>
