<svg width="12" height="13" viewBox="0 0 12 13" fill="none" xmlns="http://www.w3.org/2000/svg">
<path d="M4.25 4.25L5.21043 5.21043C5.32433 5.32433 5.32433 5.509 5.21043 5.62291L4.25 6.58333M6.58333 6.58333H7.75M3.42361 0.75H8.57639C8.76432 0.75 8.91667 0.902348 8.91667 1.09028C8.91667 2.02993 9.6784 2.79167 10.6181 2.79167H10.8611C11.0759 2.79167 11.25 2.96578 11.25 3.18056V3.68141C11.25 6.91265 9.49817 9.8899 6.67356 11.4591L6.45293 11.5817C6.17125 11.7382 5.82875 11.7382 5.54707 11.5817L5.32644 11.4591C2.50183 9.8899 0.75 6.91265 0.75 3.68141V3.18056C0.75 2.96578 0.924111 2.79167 1.13889 2.79167H1.38194C2.3216 2.79167 3.08333 2.02993 3.08333 1.09028C3.08333 0.902347 3.23568 0.75 3.42361 0.75Z" stroke="#A07A13" stroke-linecap="round"/>
</svg>
