<svg width="14" height="12" viewBox="0 0 14 12" fill="none" xmlns="http://www.w3.org/2000/svg">
<path d="M12.0186 4.1378L8.9352 3.70538L7.55682 1.00889C7.51917 0.935063 7.45724 0.875297 7.38073 0.838969C7.18885 0.747563 6.95568 0.823735 6.85974 1.00889L5.48136 3.70538L2.39792 4.1378C2.31291 4.14952 2.23519 4.18819 2.17568 4.24678C2.10374 4.31813 2.0641 4.41413 2.06546 4.51367C2.06683 4.61321 2.10909 4.70815 2.18297 4.77764L4.41388 6.87647L3.88681 9.84014C3.87445 9.90908 3.88236 9.97999 3.90963 10.0448C3.93691 10.1096 3.98246 10.1658 4.04113 10.2069C4.09979 10.248 4.16923 10.2725 4.24155 10.2774C4.31387 10.2824 4.38619 10.2677 4.45031 10.2351L7.20828 8.83584L9.96625 10.2351C10.0415 10.2737 10.129 10.2866 10.2128 10.2726C10.4241 10.2374 10.5662 10.044 10.5297 9.84014L10.0027 6.87647L12.2336 4.77764C12.2943 4.72022 12.3344 4.64522 12.3465 4.56319C12.3793 4.35811 12.2312 4.16827 12.0186 4.1378Z" fill="#FCC01C"/>
</svg>
