<svg width="16" height="17" viewBox="0 0 16 17" fill="none" xmlns="http://www.w3.org/2000/svg">
    <path d="M8.00065 8.49984C8.36884 8.49984 8.66732 8.20136 8.66732 7.83317C8.66732 7.46498 8.36884 7.1665 8.00065 7.1665C7.63246 7.1665 7.33398 7.46498 7.33398 7.83317C7.33398 8.20136 7.63246 8.49984 8.00065 8.49984Z"
          fill="currentColor"/>
    <path d="M10.6667 8.49984C11.0349 8.49984 11.3333 8.20136 11.3333 7.83317C11.3333 7.46498 11.0349 7.1665 10.6667 7.1665C10.2985 7.1665 10 7.46498 10 7.83317C10 8.20136 10.2985 8.49984 10.6667 8.49984Z"
          fill="currentColor"/>
    <path d="M5.33268 8.49984C5.70087 8.49984 5.99935 8.20136 5.99935 7.83317C5.99935 7.46498 5.70087 7.1665 5.33268 7.1665C4.96449 7.1665 4.66602 7.46498 4.66602 7.83317C4.66602 8.20136 4.96449 8.49984 5.33268 8.49984Z"
          fill="currentColor"/>
    <path d="M12.6673 2.5H3.33398C2.80355 2.5 2.29484 2.71071 1.91977 3.08579C1.5447 3.46086 1.33398 3.96957 1.33398 4.5V14.5C1.33419 14.6181 1.36578 14.7341 1.42552 14.836C1.48526 14.9379 1.57101 15.0221 1.67398 15.08C1.77362 15.1365 1.88613 15.1663 2.00065 15.1667C2.12031 15.1666 2.23775 15.1344 2.34065 15.0733L5.33398 13.26C5.44463 13.1941 5.57198 13.1617 5.70065 13.1667H12.6673C13.1978 13.1667 13.7065 12.956 14.0815 12.5809C14.4566 12.2058 14.6673 11.6971 14.6673 11.1667V4.5C14.6673 3.96957 14.4566 3.46086 14.0815 3.08579C13.7065 2.71071 13.1978 2.5 12.6673 2.5ZM13.334 11.1667C13.334 11.3435 13.2637 11.513 13.1387 11.6381C13.0137 11.7631 12.8441 11.8333 12.6673 11.8333H5.70065C5.33653 11.833 4.97924 11.9322 4.66732 12.12L2.66732 13.32V4.5C2.66732 4.32319 2.73756 4.15362 2.86258 4.0286C2.9876 3.90357 3.15717 3.83333 3.33398 3.83333H12.6673C12.8441 3.83333 13.0137 3.90357 13.1387 4.0286C13.2637 4.15362 13.334 4.32319 13.334 4.5V11.1667Z"
          fill="currentColor"/>
</svg>
