<svg width="14" height="13" viewBox="0 0 14 13" fill="none" xmlns="http://www.w3.org/2000/svg">
    <path d="M5.66634 0.666504C4.9591 0.666504 4.28082 0.947455 3.78072 1.44755C3.28063 1.94765 2.99967 2.62593 2.99967 3.33317C2.99967 4.04041 3.28063 4.71869 3.78072 5.21879C4.28082 5.71889 4.9591 5.99984 5.66634 5.99984C6.37359 5.99984 7.05186 5.71889 7.55196 5.21879C8.05206 4.71869 8.33301 4.04041 8.33301 3.33317C8.33301 2.62593 8.05206 1.94765 7.55196 1.44755C7.05186 0.947455 6.37359 0.666504 5.66634 0.666504ZM5.66634 1.99984C6.01996 1.99984 6.3591 2.14031 6.60915 2.39036C6.8592 2.64041 6.99967 2.97955 6.99967 3.33317C6.99967 3.68679 6.8592 4.02593 6.60915 4.27598C6.3591 4.52603 6.01996 4.6665 5.66634 4.6665C5.31272 4.6665 4.97358 4.52603 4.72353 4.27598C4.47348 4.02593 4.33301 3.68679 4.33301 3.33317C4.33301 2.97955 4.47348 2.64041 4.72353 2.39036C4.97358 2.14031 5.31272 1.99984 5.66634 1.99984ZM5.66634 6.6665C3.88634 6.6665 0.333008 7.55317 0.333008 9.33317V11.3332H6.66634C6.49856 10.9292 6.39292 10.5021 6.35301 10.0665H1.59967V9.33317C1.59967 8.9065 3.68634 7.93317 5.66634 7.93317C5.99967 7.93317 6.33301 7.9665 6.66634 8.01984C6.83741 7.59886 7.07363 7.20741 7.36634 6.85984C6.73967 6.73317 6.13967 6.6665 5.66634 6.6665ZM10.6663 6.6665C8.99967 6.6665 7.66634 7.99984 7.66634 9.6665C7.66634 11.3332 8.99967 12.6665 10.6663 12.6665C12.333 12.6665 13.6663 11.3332 13.6663 9.6665C13.6663 7.99984 12.333 6.6665 10.6663 6.6665ZM10.6663 7.6665C11.773 7.6665 12.6663 8.55984 12.6663 9.6665C12.6663 10.0398 12.5663 10.3865 12.3863 10.6665L9.66634 7.9465C9.94634 7.7665 10.293 7.6665 10.6663 7.6665ZM8.94634 8.6665L11.6663 11.3865C11.3863 11.5665 11.0397 11.6665 10.6663 11.6665C9.55968 11.6665 8.66634 10.7732 8.66634 9.6665C8.66634 9.29317 8.76634 8.9465 8.94634 8.6665Z"
          fill="currentColor"/>
</svg>
