<svg width="16" height="11" viewBox="0 0 16 11" fill="none" xmlns="http://www.w3.org/2000/svg">
    <path d="M7.57539 7.36872C8.24623 6.92308 8.75578 6.27331 9.02862 5.51557C9.30147 4.75783 9.32312 3.93238 9.09037 3.16137C8.85762 2.39037 8.38284 1.71478 7.73628 1.23459C7.08973 0.754399 6.30576 0.495117 5.50039 0.495117C4.69502 0.495117 3.91105 0.754399 3.26449 1.23459C2.61794 1.71478 2.14315 2.39037 1.9104 3.16137C1.67765 3.93238 1.6993 4.75783 1.97215 5.51557C2.245 6.27331 2.75455 6.92308 3.42539 7.36872C2.281 7.78954 1.29294 8.55076 0.594139 9.54997C0.548592 9.60274 0.514585 9.66445 0.494298 9.73114C0.474011 9.79784 0.467894 9.86803 0.476339 9.93723C0.484784 10.0064 0.507605 10.0731 0.543336 10.1329C0.579068 10.1928 0.62692 10.2445 0.683822 10.2848C0.740723 10.3251 0.805416 10.353 0.873748 10.3668C0.942079 10.3806 1.01254 10.3799 1.0806 10.3649C1.14867 10.3498 1.21284 10.3207 1.26898 10.2794C1.32513 10.2381 1.37202 10.1855 1.40664 10.125C1.86868 9.46857 2.48179 8.9329 3.19426 8.56313C3.90674 8.19336 4.69768 8.00034 5.50039 8.00034C6.3031 8.00034 7.09404 8.19336 7.80651 8.56313C8.51898 8.9329 9.13209 9.46857 9.59414 10.125C9.62876 10.1855 9.67565 10.2381 9.73179 10.2794C9.78794 10.3207 9.85211 10.3498 9.92017 10.3649C9.98824 10.3799 10.0587 10.3806 10.127 10.3668C10.1954 10.353 10.2601 10.3251 10.317 10.2848C10.3739 10.2445 10.4217 10.1928 10.4574 10.1329C10.4932 10.0731 10.516 10.0064 10.5244 9.93723C10.5329 9.86803 10.5268 9.79784 10.5065 9.73114C10.4862 9.66445 10.4522 9.60274 10.4066 9.54997C9.70784 8.55076 8.71978 7.78954 7.57539 7.36872ZM2.75039 4.24997C2.75039 3.70607 2.91167 3.17438 3.21385 2.72215C3.51602 2.26991 3.94551 1.91744 4.44801 1.7093C4.95051 1.50116 5.50344 1.4467 6.03689 1.55281C6.57033 1.65892 7.06034 1.92083 7.44493 2.30542C7.82953 2.69002 8.09144 3.18002 8.19755 3.71347C8.30366 4.24692 8.2492 4.79985 8.04106 5.30235C7.83292 5.80484 7.48044 6.23433 7.02821 6.53651C6.57597 6.83868 6.04429 6.99997 5.50039 6.99997C4.77104 6.99997 4.07157 6.71024 3.55585 6.19451C3.04012 5.67879 2.75039 4.97931 2.75039 4.24997ZM15.3816 10.2437C15.3285 10.282 15.2682 10.3093 15.2044 10.324C15.1406 10.3388 15.0745 10.3407 15.0099 10.3297C14.9453 10.3186 14.8836 10.2948 14.8283 10.2597C14.773 10.2245 14.7253 10.1787 14.6879 10.125C14.2255 9.46887 13.6123 8.93341 12.9 8.56362C12.1876 8.19383 11.3968 8.00053 10.5941 7.99997C10.4615 7.99997 10.3344 7.94729 10.2406 7.85352C10.1468 7.75975 10.0941 7.63258 10.0941 7.49997C10.0941 7.36736 10.1468 7.24018 10.2406 7.14641C10.3344 7.05264 10.4615 6.99997 10.5941 6.99997C11.3235 6.99997 12.023 6.71024 12.5387 6.19451C13.0544 5.67879 13.3441 4.97931 13.3441 4.24997C13.3441 3.52062 13.0544 2.82115 12.5387 2.30542C12.023 1.7897 11.3235 1.49997 10.5941 1.49997C10.343 1.50164 10.0931 1.53524 9.85039 1.59997C9.78719 1.61809 9.72104 1.62358 9.65572 1.61611C9.5904 1.60863 9.52719 1.58835 9.46972 1.55642C9.41225 1.52449 9.36163 1.48154 9.32078 1.43003C9.27993 1.37852 9.24964 1.31945 9.23164 1.25622C9.19673 1.12862 9.21316 0.992423 9.27741 0.876782C9.34165 0.761141 9.44861 0.675242 9.57539 0.637467C9.90764 0.548007 10.2501 0.501792 10.5941 0.499967C11.4003 0.497065 12.1859 0.754492 12.8341 1.23395C13.4822 1.71342 13.9583 2.3893 14.1914 3.16105C14.4245 3.93281 14.4023 4.75922 14.1281 5.51733C13.8538 6.27545 13.3421 6.92477 12.6691 7.36872C13.8143 7.79126 14.8039 8.55198 15.5066 9.54997C15.5817 9.65867 15.6106 9.79264 15.5872 9.92262C15.5638 10.0526 15.4899 10.168 15.3816 10.2437Z"
          fill="currentColor"/>
</svg>
