<svg width="16" height="15" viewBox="0 0 16 15" fill="none" xmlns="http://www.w3.org/2000/svg">
    <path d="M7.99935 7.50016C7.60379 7.50016 7.21711 7.61746 6.88821 7.83722C6.55931 8.05699 6.30296 8.36934 6.15159 8.7348C6.00021 9.10025 5.96061 9.50238 6.03778 9.89034C6.11495 10.2783 6.30543 10.6347 6.58513 10.9144C6.86484 11.1941 7.22121 11.3846 7.60917 11.4617C7.99713 11.5389 8.39926 11.4993 8.76472 11.3479C9.13017 11.1965 9.44252 10.9402 9.66229 10.6113C9.88205 10.2824 9.99935 9.89573 9.99935 9.50016C9.99935 8.96973 9.78864 8.46102 9.41356 8.08595C9.03849 7.71088 8.52978 7.50016 7.99935 7.50016ZM7.99935 10.1668C7.86749 10.1668 7.7386 10.1277 7.62897 10.0545C7.51934 9.98122 7.43389 9.8771 7.38343 9.75528C7.33297 9.63347 7.31977 9.49942 7.34549 9.3701C7.37122 9.24078 7.43471 9.12199 7.52794 9.02876C7.62118 8.93552 7.73997 8.87203 7.86929 8.8463C7.99861 8.82058 8.13265 8.83378 8.25447 8.88424C8.37629 8.9347 8.48041 9.02015 8.55366 9.12978C8.62692 9.23941 8.66602 9.36831 8.66602 9.50016C8.66602 9.67697 8.59578 9.84654 8.47075 9.97157C8.34573 10.0966 8.17616 10.1668 7.99935 10.1668ZM7.52602 5.9735C7.58942 6.03419 7.66418 6.08177 7.74602 6.1135C7.82582 6.14877 7.9121 6.16698 7.99935 6.16698C8.0866 6.16698 8.17288 6.14877 8.25268 6.1135C8.33452 6.08177 8.40928 6.03419 8.47268 5.9735L9.99935 4.4735C10.1284 4.34442 10.2009 4.16936 10.2009 3.98683C10.2009 3.80429 10.1284 3.62923 9.99935 3.50016C9.87028 3.37109 9.69522 3.29858 9.51268 3.29858C9.33015 3.29858 9.15509 3.37109 9.02602 3.50016L8.66602 3.8935V1.50016C8.66602 1.32335 8.59578 1.15378 8.47075 1.02876C8.34573 0.903734 8.17616 0.833496 7.99935 0.833496C7.82254 0.833496 7.65297 0.903734 7.52794 1.02876C7.40292 1.15378 7.33268 1.32335 7.33268 1.50016V3.8935L6.97268 3.50016C6.84361 3.37109 6.66855 3.29858 6.48601 3.29858C6.30348 3.29858 6.12842 3.37109 5.99935 3.50016C5.87028 3.62923 5.79776 3.80429 5.79776 3.98683C5.79776 4.16936 5.87028 4.34442 5.99935 4.4735L7.52602 5.9735ZM12.666 9.50016C12.666 9.36831 12.6269 9.23941 12.5537 9.12978C12.4804 9.02015 12.3763 8.9347 12.2545 8.88424C12.1327 8.83378 11.9986 8.82058 11.8693 8.8463C11.74 8.87203 11.6212 8.93552 11.5279 9.02876C11.4347 9.12199 11.3712 9.24078 11.3455 9.3701C11.3198 9.49942 11.333 9.63347 11.3834 9.75528C11.4339 9.8771 11.5193 9.98122 11.629 10.0545C11.7386 10.1277 11.8675 10.1668 11.9993 10.1668C12.1762 10.1668 12.3457 10.0966 12.4708 9.97157C12.5958 9.84654 12.666 9.67697 12.666 9.50016ZM13.3327 4.8335H11.3327C11.1559 4.8335 10.9863 4.90373 10.8613 5.02876C10.7363 5.15378 10.666 5.32335 10.666 5.50016C10.666 5.67697 10.7363 5.84654 10.8613 5.97157C10.9863 6.09659 11.1559 6.16683 11.3327 6.16683H13.3327C13.5095 6.16683 13.6791 6.23707 13.8041 6.36209C13.9291 6.48712 13.9993 6.65668 13.9993 6.8335V12.1668C13.9993 12.3436 13.9291 12.5132 13.8041 12.6382C13.6791 12.7633 13.5095 12.8335 13.3327 12.8335H2.66602C2.4892 12.8335 2.31964 12.7633 2.19461 12.6382C2.06959 12.5132 1.99935 12.3436 1.99935 12.1668V6.8335C1.99935 6.65668 2.06959 6.48712 2.19461 6.36209C2.31964 6.23707 2.4892 6.16683 2.66602 6.16683H4.66602C4.84283 6.16683 5.0124 6.09659 5.13742 5.97157C5.26244 5.84654 5.33268 5.67697 5.33268 5.50016C5.33268 5.32335 5.26244 5.15378 5.13742 5.02876C5.0124 4.90373 4.84283 4.8335 4.66602 4.8335H2.66602C2.13558 4.8335 1.62687 5.04421 1.2518 5.41928C0.876729 5.79435 0.666016 6.30306 0.666016 6.8335V12.1668C0.666016 12.6973 0.876729 13.206 1.2518 13.581C1.62687 13.9561 2.13558 14.1668 2.66602 14.1668H13.3327C13.8631 14.1668 14.3718 13.9561 14.7469 13.581C15.122 13.206 15.3327 12.6973 15.3327 12.1668V6.8335C15.3327 6.30306 15.122 5.79435 14.7469 5.41928C14.3718 5.04421 13.8631 4.8335 13.3327 4.8335ZM3.33268 9.50016C3.33268 9.63202 3.37178 9.76091 3.44504 9.87054C3.51829 9.98018 3.62241 10.0656 3.74423 10.1161C3.86604 10.1665 4.00009 10.1797 4.12941 10.154C4.25873 10.1283 4.37752 10.0648 4.47075 9.97157C4.56399 9.87833 4.62748 9.75954 4.65321 9.63022C4.67893 9.5009 4.66573 9.36686 4.61527 9.24504C4.56481 9.12322 4.47936 9.0191 4.36973 8.94585C4.2601 8.87259 4.1312 8.8335 3.99935 8.8335C3.82254 8.8335 3.65297 8.90373 3.52794 9.02876C3.40292 9.15378 3.33268 9.32335 3.33268 9.50016Z"
          fill="currentColor"/>
</svg>
